 <svg
            xmlns="http://www.w3.org/2000/svg"
            viewBox="0 0 168 40"
            fill="#3067db"
            className="w-28 pb-8 text-dayforce"
          >
            <path d="M16.5025 10.8462C14.9619 10.1308 13.2327 9.76836 11.3482 9.76836C9.16893 9.76836 7.19725 10.2521 5.48551 11.2071C3.77218 12.1636 2.41388 13.4841 1.45181 15.1292C0.488164 16.7743 0 18.6511 0 20.7075C0 22.7356 0.488164 24.6045 1.45023 26.2638C2.41388 27.9247 3.77218 29.2468 5.48868 30.1891C7.19884 31.1283 9.16893 31.6042 11.3482 31.6042C13.526 31.6042 15.4976 31.1283 17.2078 30.1891C18.9243 29.2452 20.2778 27.9231 21.2272 26.2606C22.0847 24.7573 22.5586 23.0807 22.6394 21.2669H22.6537V0.0015758L16.5041 2.02647V10.8462H16.5025ZM14.8969 16.6956C15.8622 17.7466 16.3297 19.0592 16.3297 20.7091C16.3297 22.3306 15.8606 23.6291 14.8969 24.6785C13.946 25.7154 12.7842 26.2197 11.3482 26.2197C9.88374 26.2197 8.71722 25.717 7.78051 24.6801C6.82796 23.6291 6.36515 22.3306 6.36515 20.7075C6.36515 19.0577 6.82796 17.745 7.78051 16.6924C8.7188 15.6571 9.88532 15.1529 11.3482 15.1529C12.7842 15.1544 13.9444 15.6587 14.8969 16.6956ZM141.111 24.3728L144.642 28.9994L144.203 29.3177C142.11 30.8336 139.655 31.6042 136.909 31.6042C134.814 31.6042 132.9 31.1204 131.216 30.1639C129.532 29.2058 128.195 27.8869 127.249 26.2402C126.301 24.5966 125.821 22.734 125.821 20.7075C125.821 18.6826 126.301 16.8137 127.248 15.156C128.195 13.4951 129.53 12.1667 131.216 11.2086C132.9 10.2521 134.816 9.76836 136.909 9.76836C139.655 9.76836 142.108 10.5373 144.203 12.0548L144.642 12.3731L141.111 16.9997L140.68 16.5947C140.216 16.1582 139.664 15.8115 139.04 15.5673C138.415 15.3215 137.756 15.197 137.081 15.197C135.561 15.197 134.38 15.6918 133.472 16.7113C132.56 17.734 132.098 19.0797 132.098 20.7075C132.098 22.359 132.546 23.6574 133.47 24.6801C134.377 25.687 135.559 26.1755 137.081 26.1755C137.757 26.1755 138.415 26.0511 139.04 25.8052C139.663 25.5594 140.216 25.2143 140.68 24.7778L141.111 24.3728ZM84.4477 10.2821L82.262 16.5679H80.2824V31.6057H73.9601L73.9648 10.8115C73.9791 8.81185 74.4577 6.9729 75.3865 5.3451C76.3359 3.68106 77.6879 2.36054 79.4059 1.41664C81.1145 0.47589 83.0862 0 85.2639 0C85.8884 0 86.535 0.0567286 87.299 0.176489L87.9266 0.275764L86.1309 5.43965L85.7188 5.40656C85.5429 5.39237 85.397 5.38607 85.2639 5.38607C83.8279 5.38607 82.6662 5.89032 81.7152 6.9272C80.8783 7.83958 80.4155 8.94107 80.3093 10.2821H84.4477ZM125.561 10.1686L123.74 15.3293L123.29 15.2458C122.963 15.1844 122.624 15.1544 122.279 15.1544C120.843 15.1544 119.681 15.6587 118.73 16.6956C117.765 17.745 117.297 19.0435 117.297 20.665V31.6042H110.975V20.1056H110.989C111.07 18.2918 111.544 16.6152 112.401 15.1119C113.351 13.4494 114.703 12.1273 116.421 11.1834C118.131 10.2442 120.101 9.76836 122.28 9.76836C123.168 9.76836 124.046 9.85975 124.965 10.0473L125.561 10.1686ZM64.7404 10.2821H71.337L58.4688 40H52.083L56.589 29.9984L48.0905 10.2821H54.6887L59.6749 22.7151L64.7404 10.2821ZM102.657 11.2071C100.945 10.2521 98.9737 9.76836 96.7944 9.76836C94.6151 9.76836 92.6434 10.2521 90.9317 11.2071C89.2183 12.1636 87.8616 13.4825 86.898 15.1292C85.9343 16.7743 85.4478 18.6511 85.4478 20.7075C85.4478 22.7356 85.9359 24.6045 86.898 26.2638C87.8616 27.9263 89.2199 29.2468 90.9364 30.1891C92.6466 31.1283 94.6167 31.6042 96.796 31.6042C98.9737 31.6042 100.945 31.1283 102.656 30.1891C104.372 29.2452 105.726 27.9231 106.675 26.2606C107.621 24.6013 108.101 22.734 108.101 20.7091C108.101 18.6543 107.621 16.7791 106.673 15.1339C105.722 13.4857 104.37 12.1651 102.657 11.2071ZM101.777 20.7075C101.777 22.329 101.308 23.6275 100.345 24.677C99.3921 25.7138 98.2319 26.2181 96.796 26.2181C95.3315 26.2181 94.165 25.7154 93.2283 24.6785C92.2757 23.6275 91.8145 22.329 91.8145 20.706C91.8145 19.0561 92.2773 17.7435 93.2283 16.6908C94.1666 15.6555 95.3331 15.1513 96.796 15.1513C98.2319 15.1513 99.3921 15.6555 100.345 16.6924C101.308 17.7466 101.777 19.0593 101.777 20.7075ZM47.7181 20.687C47.7149 18.6417 47.2346 16.7728 46.2916 15.1339C45.3422 13.4857 43.9918 12.1651 42.2769 11.2086C40.5652 10.2537 38.5935 9.76993 36.4142 9.76993C34.2349 9.76993 32.2632 10.2537 30.5515 11.2086C28.8381 12.1651 27.4814 13.4841 26.5178 15.1308C25.5541 16.7759 25.0676 18.6527 25.0676 20.7091C25.0676 22.7372 25.5557 24.6061 26.5178 26.2654C27.4814 27.9278 28.8397 29.2483 30.5562 30.1907C32.2664 31.1298 34.2365 31.6057 36.4158 31.6057C38.5935 31.6057 40.5652 31.1298 42.2753 30.1907C42.3213 30.1655 42.3625 30.1371 42.4085 30.1119V31.6057H47.7212L47.7181 20.687ZM39.9629 24.677C39.0103 25.7138 37.8502 26.2181 36.4142 26.2181C34.9497 26.2181 33.7832 25.7154 32.8465 24.6785C31.8939 23.6275 31.4327 22.329 31.4327 20.706C31.4327 19.0561 31.8955 17.7435 32.8465 16.6908C33.7848 15.6555 34.9513 15.1513 36.4142 15.1513C37.8502 15.1513 39.0103 15.6555 39.9629 16.6924C40.9265 17.7435 41.3957 19.0561 41.3957 20.7044C41.3957 22.329 40.9265 23.6275 39.9629 24.677ZM161.261 23.7772C161.074 24.0939 160.861 24.3965 160.603 24.677C159.65 25.7138 158.49 26.2181 157.054 26.2181C155.992 26.2181 155.087 25.9486 154.312 25.4081L154.307 25.4097L162.028 20.9786L167.948 17.5812C167.71 16.7192 167.374 15.8998 166.933 15.1324C165.984 13.4841 164.633 12.1636 162.918 11.2071C161.207 10.2521 159.235 9.76836 157.056 9.76836C154.876 9.76836 152.905 10.2521 151.193 11.2071C149.48 12.1636 148.123 13.4825 147.159 15.1292C146.196 16.7743 145.709 18.6511 145.709 20.7075C145.709 22.7356 146.197 24.6045 147.159 26.2638C148.123 27.9263 149.481 29.2468 151.198 30.1891C152.908 31.1283 154.878 31.6042 157.057 31.6042C159.235 31.6042 161.207 31.1283 162.917 30.1891C164.633 29.2452 165.987 27.9231 166.936 26.2606C167.383 25.479 167.721 24.6486 167.957 23.7788H161.261V23.7772ZM152.071 20.7075C152.071 19.0577 152.534 17.745 153.486 16.6924C154.425 15.6571 155.591 15.1529 157.054 15.1529C158.343 15.1529 159.409 15.5626 160.303 16.3977L152.085 21.1157C152.079 20.9801 152.071 20.8478 152.071 20.7075Z"></path>
          </svg>